<svg width="119" height="119" viewBox="0 0 119 119" fill="none" xmlns="http://www.w3.org/2000/svg">
<path fill-rule="evenodd" clip-rule="evenodd" d="M22.8337 0.412899C21.6935 0.866379 20.3754 2.04133 19.8207 3.09914C19.5936 3.5324 19.3958 4.60788 19.3336 5.74634L19.2289 7.66392H13.8386C8.00547 7.66392 6.61578 7.8587 4.78023 8.93301C3.5383 9.66007 1.9401 11.2397 1.23804 12.4346C-0.0920811 14.6983 -0.0394904 12.963 0.0277604 52.4271L0.0894263 88.6673L0.830581 90.23C2.27706 93.28 4.94824 95.3038 8.13509 95.7638C10.6429 96.1259 17.5674 96.0478 18.3398 95.6489C19.3415 95.1315 19.6017 93.9842 18.9215 93.0836C18.5941 92.6503 18.2113 92.6094 13.2857 92.4825C7.60825 92.3361 7.0763 92.2322 5.58142 90.9758C4.22779 89.8381 3.62091 88.4721 3.50712 86.3062L3.40519 84.3673H59.5156H115.626V85.8367C115.626 88.5899 114.394 90.746 112.2 91.8347L111.088 92.3863L67.4126 92.4479L23.7368 92.5097L23.2574 93.1184C22.9936 93.4534 22.7778 93.8652 22.7778 94.0338C22.7778 94.7211 23.3489 95.5155 24.0081 95.7449C24.4549 95.9004 28.2838 95.989 34.5679 95.989H44.427L44.3649 101.858L44.3027 107.727L38.7067 107.843C32.5276 107.971 32.3039 108.023 31.3776 109.541C30.9869 110.181 30.924 110.722 30.9233 113.445C30.9224 116.343 30.9661 116.671 31.446 117.373C31.7338 117.794 32.3344 118.333 32.7803 118.57C33.5498 118.978 34.5267 119 51.8763 119C69.956 119 70.1669 118.995 70.6704 118.526C71.355 117.889 71.355 116.625 70.6704 115.987C70.1671 115.519 69.9535 115.513 52.287 115.513H34.4129V113.422V111.33H59.5447H84.6765V113.422V115.513H80.2991C76.2155 115.513 75.8874 115.545 75.4124 115.987C74.7278 116.625 74.7278 117.889 75.4124 118.526C75.8906 118.971 76.2127 119 80.7099 119C86.0625 119 86.6212 118.869 87.6434 117.373C88.1233 116.671 88.167 116.343 88.1661 113.445C88.1654 110.722 88.1026 110.181 87.7119 109.541C86.7855 108.023 86.5618 107.971 80.3827 107.843L74.7867 107.727L74.7245 101.858L74.6624 95.989L92.0608 95.9843C101.63 95.9818 110.132 95.8825 110.954 95.7638C114.141 95.3038 116.812 93.28 118.259 90.23L119 88.6673V51.8265V14.9856L118.457 13.641C117.826 12.079 115.87 9.84671 114.357 8.96114C112.47 7.85684 111.117 7.66392 105.251 7.66392H99.8605L99.7558 5.74634C99.6385 3.59469 99.2941 2.75049 98.0361 1.53021C96.3437 -0.111473 98.9714 -0.00780687 59.4451 0.00613919C26.5192 0.0179933 23.7501 0.0486747 22.8337 0.412899ZM95.6314 4.15951L96.3116 4.83892V31.3555V57.8721L74.9612 57.8128L53.6108 57.7535L53.5424 55.9233C53.4819 54.3103 53.5189 54.1104 53.8535 54.2387C56.06 55.0845 59.0544 54.0957 60.2789 52.117C60.5535 51.6731 61.8883 48.3667 63.2447 44.7695L65.7113 38.229L77.7369 38.1128C89.4257 37.9999 89.7803 37.9831 90.4047 37.5173C90.7579 37.2538 91.2629 36.7494 91.5268 36.3965C91.9957 35.7694 92.008 35.4663 92.0706 23.2266C92.1418 9.29236 92.1781 9.65612 90.595 8.45002L89.7159 7.78014H73.0184C56.517 7.78014 56.3134 7.78572 55.6784 8.25942C55.3249 8.523 54.8199 9.02738 54.5561 9.38022C54.0876 10.0066 54.0746 10.3174 54.0057 22.3824C53.9585 30.6196 54.0173 35.0249 54.1821 35.5893C54.3973 36.327 54.3364 36.6789 53.7088 38.3204C53.3125 39.3568 52.919 40.204 52.8341 40.2033C52.7494 40.2026 51.3206 39.3143 49.6591 38.229C47.9974 37.144 46.5313 36.2196 46.4013 36.175C46.2709 36.1304 46.6 35.6437 47.1322 35.0937C50.6008 31.5091 50.5322 25.7252 46.9784 22.119C43.9467 19.0427 39.1598 18.4108 35.4296 20.5942C34.0534 21.3996 32.39 23.2626 31.6624 24.8134C31.1044 26.0025 31.0388 26.4118 31.0388 28.6992C31.0388 30.982 31.1051 31.3973 31.6577 32.5751C31.9984 33.3005 32.7314 34.389 33.2867 34.9936C33.9222 35.6855 34.1881 36.1302 34.0043 36.1932C33.2487 36.4514 30.8493 38.4503 29.9688 39.5548C28.7329 41.1052 27.5501 43.6287 27.2206 45.4192C27.0807 46.1776 26.9665 49.2371 26.9665 52.2179V57.6373H24.8722H22.7778V31.2381V4.83892L23.458 4.15951L24.1382 3.4801H59.5447H94.9512L95.6314 4.15951ZM19.2873 13.2219V15.2933L15.6151 15.3719C12.216 15.4447 11.8567 15.4946 10.7886 16.0443C9.48918 16.7128 8.25516 18.1723 7.89564 19.4658C7.73531 20.0418 7.65433 30.4678 7.65363 50.6062L7.65223 80.8808H5.55466H3.45732L3.51852 48.1656C3.57739 16.7702 3.5974 15.4177 4.01324 14.637C4.8505 13.0648 6.28464 11.8533 7.88354 11.3675C8.2042 11.2701 10.9012 11.1814 13.877 11.1704L19.2873 11.1504V13.2219ZM88.6324 22.8884V34.6263H77.8118H66.9912V33.3872C66.9912 32.5321 66.8139 31.7985 66.4187 31.0192L65.8465 29.8898L67.447 23.5073C69.1397 16.7586 69.1669 16.4404 68.1177 15.7064C67.4152 15.215 66.9451 15.2371 66.2356 15.7945C65.7297 16.1917 65.4497 17.058 64.1822 22.1476L62.7148 28.0407H61.3917C60.3357 28.0407 59.8049 28.1895 58.7596 28.7787L57.4504 29.5167V20.3337V11.1504H73.0414H88.6324V22.8884ZM112.135 11.6994C113.272 12.3035 114.413 13.4248 115.006 14.5207L115.509 15.4505L115.571 48.1656L115.632 80.8808H113.535H111.437L111.436 50.6062C111.435 30.4678 111.354 20.0418 111.194 19.4658C110.834 18.1723 109.6 16.7128 108.301 16.0443C107.233 15.4946 106.873 15.4447 103.474 15.3719L99.8021 15.2933V13.2073V11.1209L105.561 11.1939C110.644 11.2581 111.416 11.3176 112.135 11.6994ZM19.2873 49.8508V80.8808H15.215H11.1428L11.1509 50.7224C11.1577 26.1357 11.2163 20.4613 11.4676 20.0085C12.0268 19.0004 12.6642 18.8377 16.0877 18.8289L19.2873 18.8208V49.8508ZM106.673 19.0985C108.014 19.7084 107.947 18.0391 107.947 50.7689V80.8808H103.874H99.8021V49.8508V18.8208H102.933C104.864 18.8208 106.297 18.9272 106.673 19.0985ZM42.5575 23.2554C46.378 24.9808 47.4084 29.6366 44.6348 32.6423C41.7537 35.7641 36.7274 35.0486 34.9637 31.2655C33.9464 29.0834 34.3787 26.2724 35.9974 24.5442C37.5591 22.8768 40.4581 22.3071 42.5575 23.2554ZM61.6786 32.0563C61.5597 32.87 62.0986 33.9188 62.7157 34.0734C63.0194 34.1496 63.2689 34.3314 63.27 34.4771C63.2735 34.8757 61.7887 38.8101 61.6348 38.8101C61.5615 38.8101 60.6521 38.5224 59.6136 38.1709L57.7257 37.5317L58.6404 35.1037C59.5768 32.6181 60.0078 31.9252 60.8246 31.5928C61.5013 31.3174 61.7656 31.461 61.6786 32.0563ZM43.2109 38.614L43.9684 38.9263L42.7008 39.9126C41.0961 41.161 40.418 41.4266 39.6138 41.1212C38.7505 40.7933 36.6732 39.0142 36.901 38.7978C37.6042 38.1286 41.7419 38.008 43.2109 38.614ZM35.4133 42.4456C37.65 44.2549 38.532 44.677 40.1141 44.6951C41.8484 44.7151 42.7895 44.296 45.0304 42.5054C46.1469 41.6133 47.2011 40.9376 47.3732 41.0034C47.5454 41.0694 48.2861 41.5291 49.0196 42.0252C51.0427 43.3933 51.7427 43.6913 52.9318 43.6913C54.3192 43.6913 55.4522 43.0107 56.0661 41.8083C56.3206 41.31 56.605 40.902 56.6981 40.902C57.3303 40.902 60.4895 42.1595 60.4092 42.3789C58.0889 48.7151 57.583 49.9052 56.9601 50.49C56.1382 51.2619 55.5897 51.29 54.3987 50.6215C53.4973 50.1153 53.4945 50.1092 53.4945 48.6458C53.4945 47.4876 53.3963 47.0797 53.0291 46.7129C52.4413 46.1258 51.382 46.1162 50.6697 46.692C50.1249 47.1322 50.1196 47.1822 50.05 52.5028L49.9795 57.8698H40.2011H30.4228L30.504 51.7683C30.578 46.2015 30.6283 45.5607 31.0778 44.4539C31.5214 43.3617 33.1273 40.902 33.397 40.902C33.4565 40.902 34.3638 41.5968 35.4133 42.4456ZM38.6016 71.1185V80.8808H30.6897H22.7778V71.1185V61.3563H30.6897H38.6016V71.1185ZM96.3116 71.1185V80.8808H69.2018H42.0921V71.1185V61.3563H69.2018H96.3116V71.1185ZM53.5771 65.8641C52.5467 66.3292 51.0423 67.7415 50.7011 68.5643C50.4233 69.2337 50.3583 69.259 48.9179 69.259C47.6411 69.259 47.3397 69.3422 46.852 69.8297C46.119 70.5616 46.1053 71.5701 46.8192 72.2402C47.2592 72.653 47.6374 72.7456 48.8853 72.7456C50.3844 72.7456 50.4186 72.7595 50.7211 73.4891C51.5246 75.4265 54.2575 76.9319 56.3611 76.5958C57.8525 76.3576 59.4677 75.3523 60.2468 74.1773C60.6286 73.6018 60.9409 73.044 60.9409 72.9382C60.9409 72.8323 67.7398 72.7456 76.0495 72.7456H91.1584L91.6406 72.1331C92.2805 71.3207 92.2498 70.5267 91.5517 69.8297L90.9806 69.259L76.0188 69.2465L61.0573 69.2337L60.3592 68.1487C59.9752 67.5518 59.2094 66.7487 58.6574 66.3638C57.8034 65.7683 57.4043 65.6542 55.9813 65.5989C54.9051 65.5573 54.0481 65.6517 53.5771 65.8641ZM57.1118 69.5972C58.3119 70.7957 57.6312 72.7676 55.898 73.1137C55.3177 73.2297 55.0366 73.1263 54.4083 72.5657C53.7914 72.015 53.6341 71.6975 53.6341 71.0016C53.6341 69.2486 55.862 68.3488 57.1118 69.5972ZM28.9014 69.4931C27.8102 69.9324 27.5899 71.2973 28.4686 72.1749C28.9668 72.6728 29.2488 72.7456 30.6792 72.7456C32.619 72.7456 33.2494 72.3221 33.2494 71.0193C33.2494 69.8406 32.3996 69.2548 30.7165 69.2737C29.9979 69.2818 29.1811 69.3806 28.9014 69.4931ZM71.1798 101.916V107.843H68.1547H65.1296V105.376C65.1296 102.494 64.7314 101.487 63.267 100.665C62.5068 100.238 62.0118 100.173 59.5447 100.173C57.0776 100.173 56.5827 100.238 55.8224 100.665C54.358 101.487 53.9599 102.494 53.9599 105.376V107.843H50.9347H47.9096V101.916V95.989H59.5447H71.1798V101.916ZM61.639 105.751V107.843H59.5447H57.4504V105.751V103.659H59.5447H61.639V105.751Z" fill="#0074BC"/>
</svg>
