<svg width="120" height="119" viewBox="0 0 120 119" fill="none" xmlns="http://www.w3.org/2000/svg">
<path fill-rule="evenodd" clip-rule="evenodd" d="M52.5 0.141813C49.9359 0.461477 46.5148 1.40133 44.1443 2.43735C42.2766 3.25364 6.1882 24.0932 4.62516 25.258C3.57961 26.0372 2.38594 28.0117 1.97602 29.6398C1.03547 33.3765 2.89992 37.1395 6.53437 38.8389C7.60734 39.3405 8.19914 39.4548 9.72656 39.4548C12.1027 39.4548 11.9862 39.5099 22.3537 33.4757C26.8495 30.8589 30.5937 28.7188 30.6741 28.72C30.7545 28.7209 31.0559 29.1377 31.3439 29.6459C32.0257 30.8499 33.6555 32.1815 35.1457 32.7523C36.2637 33.1806 37.0627 33.2071 48.8191 33.2071H61.305L65.1642 34.516C70.642 36.3742 72.9265 36.9318 76.2398 37.2193C83.5657 37.8553 89.9409 36.4179 96.2297 32.7126C98.7359 31.236 100.078 30.8995 100.078 31.7484C100.078 31.9856 100.322 32.4109 100.62 32.6935C101.158 33.2021 101.249 33.2071 110.006 33.2071H118.849L119.425 32.6271L120 32.0473V17.252V2.45648L119.315 1.76589L118.63 1.07529H109.929H101.229L100.654 1.65532C100.337 1.97427 100.078 2.39954 100.078 2.60037C100.078 2.92287 99.0865 2.9654 91.556 2.9654H83.0339L71.1068 1.54191C58.414 0.0267526 55.3005 -0.207384 52.5 0.141813ZM70.8984 5.60186L82.8516 7.05181L91.4648 7.15694L100.078 7.26232V17.2813V27.3005L98.7305 27.301C97.526 27.3015 97.1714 27.4295 95.3925 28.5081C89.258 32.2273 85.9027 33.2071 79.3001 33.2071C74.5777 33.2071 73.4323 32.9876 66.8702 30.8263L61.9048 29.1906H49.4058C37.691 29.1906 36.8555 29.1632 36.09 28.7531C35.1124 28.2295 34.287 27.081 34.077 25.9519C33.7324 24.101 35.0958 21.9314 36.9251 21.4197C37.5532 21.2439 42.7022 21.1598 52.9102 21.1591L67.9688 21.1577V19.1416V17.1254L52.0898 17.1925L36.2109 17.2593L34.9111 17.8738C32.5472 18.9916 30.9373 20.8855 30.342 23.2488L30.0745 24.3104L20.6037 29.8212C15.3947 32.8522 10.7798 35.3994 10.3486 35.4816C7.65 35.9955 5.11617 33.1658 5.86406 30.4735C6.22828 29.1618 7.11703 28.3424 9.96094 26.6964C12.229 25.3837 19.7648 21.0017 25.7812 17.4972C45.4786 6.0243 45.3635 6.08667 48.6328 5.07901C49.9341 4.67783 51.911 4.29367 53.9062 4.0541C55.5759 3.85351 59.2329 4.18664 70.8984 5.60186ZM116.016 17.1412V29.1906H110.039H104.062V17.1412V5.09177H110.039H116.016V17.1412ZM57.8906 38.5837C57.8906 39.6649 57.8498 39.7325 56.8261 40.356C56.1771 40.751 55.4775 41.465 55.0334 42.1853L54.3049 43.3664H46.137H37.9688V45.3747V47.3829H39.3757H40.7829L37.3835 54.2329C35.0693 58.897 33.9844 61.3316 33.9844 61.8618C33.9844 63.1497 34.6603 65.3779 35.4591 66.7234C38.0501 71.0877 43.5811 72.7895 48.2299 70.6525C51.2522 69.2635 53.6503 65.8384 53.8554 62.6188L53.9611 60.9572L50.6524 54.2898C48.8327 50.6228 47.3438 47.5686 47.3438 47.5027C47.3438 47.4368 48.9284 47.3829 50.8652 47.3829C54.3855 47.3829 54.3867 47.3831 54.6047 47.9613C54.9265 48.8142 56.3862 50.356 57.1901 50.6915L57.8906 50.9843V63.3593V75.7345H52.9688H48.0469V77.7427V79.751H60H71.9531V77.7427V75.7345H67.0312H62.1094V63.3593V50.9843L62.8099 50.6915C63.6138 50.356 65.0735 48.8142 65.3953 47.9613C65.6133 47.3831 65.6145 47.3829 69.1348 47.3829C71.0716 47.3829 72.6562 47.4368 72.6562 47.5027C72.6562 47.5686 71.1673 50.6228 69.3476 54.2898L66.0389 60.9572L66.1446 62.6188C66.3497 65.8386 68.7485 69.2642 71.7701 70.6522C78.0307 73.5278 85.2197 69.4062 85.9324 62.5323L86.0712 61.1948L82.6441 54.2889L79.2171 47.3829H80.6243H82.0312V45.3747V43.3664H73.863H65.6951L64.9636 42.1801C64.5213 41.4631 63.8154 40.7389 63.1781 40.3491C62.1694 39.732 62.1239 39.6561 62.1169 38.5821L62.1094 37.4598H60H57.8906V38.5837ZM60.8156 43.6008C61.5195 43.8706 62.0871 45.0307 61.9275 45.8725C61.7857 46.6202 60.8123 47.3829 60 47.3829C59.1877 47.3829 58.2143 46.6202 58.0725 45.8725C57.9202 45.0692 58.4702 43.873 59.1115 43.6136C59.8256 43.3246 60.0898 43.3227 60.8156 43.6008ZM46.4062 54.7071L48.7523 59.4323H44.0637C41.4848 59.4323 39.375 59.3799 39.375 59.3159C39.375 59.1602 43.9228 49.9818 43.9999 49.9818C44.0332 49.9818 45.116 52.1082 46.4062 54.7071ZM80.6126 59.2551C80.6194 59.3525 78.5152 59.4323 75.9363 59.4323H71.2477L73.6219 54.6504L75.9961 49.8684L78.2981 54.4732C79.5642 57.0059 80.6055 59.1578 80.6126 59.2551ZM49.4531 63.6969C49.4531 64.6521 47.7293 66.4841 46.2218 67.131C43.8333 68.1556 40.6545 67.1964 39.1992 65.0115C38.7804 64.3825 38.4375 63.7737 38.4375 63.6584C38.4375 63.5424 40.8975 63.4488 43.9453 63.4488C47.6346 63.4488 49.4531 63.5308 49.4531 63.6969ZM81.5625 63.6584C81.5625 63.7737 81.2198 64.3825 80.8008 65.0115C79.3455 67.1964 76.1667 68.1556 73.7782 67.131C72.2707 66.4841 70.5469 64.6521 70.5469 63.6969C70.5469 63.5308 72.3654 63.4488 76.0547 63.4488C79.1025 63.4488 81.5625 63.5424 81.5625 63.6584ZM40.0781 77.7427V79.751H42.0703H44.0625V77.7427V75.7345H42.0703H40.0781V77.7427ZM75.9375 77.7427V79.751H77.9297H79.9219V77.7427V75.7345H77.9297H75.9375V77.7427ZM108.633 79.6607C107.406 79.9714 105.931 80.7662 97.9788 85.4019C93.2794 88.1414 89.3677 90.3828 89.2861 90.3828C89.2045 90.3828 89.0236 90.13 88.8839 89.8212C88.463 88.8901 87.1868 87.567 86.0766 86.9114C84.0638 85.7223 83.3402 85.6651 70.2098 85.6613L58.0369 85.6576L53.3794 84.1084C48.2309 82.3957 46.137 81.9461 42.3047 81.7306C35.6777 81.3578 29.757 82.8349 23.7715 86.3545C21.2196 87.8553 19.9219 88.1917 19.9219 87.3525C19.9219 87.1153 19.6498 86.6636 19.317 86.3484L18.7123 85.7757H9.9218H1.13133L0.565547 86.4386L0 87.1016V101.873V116.644L0.685078 117.335L1.37016 118.026H9.83742C19.155 118.026 19.4088 117.99 19.8844 116.615L20.1319 115.899H27.6668H35.202L48.2456 117.454C62.3616 119.136 65.3902 119.306 69.1807 118.629C71.8514 118.152 74.6892 117.238 76.9338 116.132C77.933 115.64 86.7895 110.575 96.6152 104.877C112.116 95.8885 114.67 94.3298 115.913 93.0998C117.647 91.3848 118.237 89.9375 118.224 87.4295C118.208 84.3798 116.273 81.4131 113.488 80.1684C112.406 79.6848 109.668 79.3985 108.633 79.6607ZM111.94 83.9137C114.42 85.1 115.016 88.2803 113.13 90.2609C112.44 90.9862 79.6948 110.21 75.6445 112.268C73.4782 113.368 71.2209 114.142 68.8148 114.608C65.4021 115.269 62.4748 115.102 49.5703 113.509L37.6172 112.034L28.7695 111.941L19.9219 111.848V101.824V91.8004H21.2229C22.4138 91.8004 22.7592 91.6598 25.3059 90.1409C29.8416 87.4352 32.9147 86.363 37.5427 85.8714C40.2405 85.5848 44.0311 85.749 46.5234 86.2607C47.4258 86.446 50.0625 87.2604 52.3828 88.0703L56.6016 89.5431L69.8438 89.6676C82.6629 89.7881 83.1122 89.8078 83.9055 90.2774C86.6477 91.9013 86.6039 95.8847 83.827 97.4164C83.1492 97.7901 81.7598 97.8308 67.5586 97.8922L52.0312 97.9593V99.9595V101.96H66.9881C82.4114 101.96 83.8554 101.885 85.5914 100.992C87.5663 99.9761 89.1143 98.0144 89.6618 95.8337C89.9721 94.5975 88.5359 95.5428 101.574 87.9935C109.893 83.177 110.171 83.0676 111.94 83.9137ZM15.9375 101.842V114.009H9.96094H3.98438V101.842V89.674H9.96094H15.9375V101.842Z" fill="#004D9C"/>
</svg>
