<svg width="118" height="119" viewBox="0 0 118 119" fill="none" xmlns="http://www.w3.org/2000/svg">
<path fill-rule="evenodd" clip-rule="evenodd" d="M5.38628 10.2854C5.5383 22.0647 5.47011 21.676 7.4008 21.803L8.46423 21.8729L8.54502 25.9922C8.61858 29.7472 8.66949 30.1712 9.11993 30.7862L9.61405 31.4612L8.71362 33.2215C8.04554 34.5278 7.30039 36.8924 5.82599 42.3863C4.73291 46.4589 3.83878 49.9726 3.83878 50.1949C3.83878 50.4171 4.04894 51.2069 4.30581 51.95C4.56267 52.6931 4.77284 53.343 4.77284 53.3941C4.77284 53.4453 4.296 53.697 3.71338 53.9536C1.27013 55.0293 0.00494807 56.8414 4.42746e-05 59.2718C-0.00299141 60.7648 0.119137 61.0539 10.3475 83.7941C16.0404 96.4503 20.783 106.895 20.8865 107.004C20.9901 107.114 24.9466 105.474 29.6785 103.359C34.4104 101.245 38.7652 99.3089 39.3558 99.0576C40.5979 98.529 41.4345 97.5902 41.4345 96.7253C41.4345 96.2772 41.0595 95.7907 39.9811 94.8391C36.2092 91.5103 35.4886 90.3516 35.4972 87.6293C35.5101 83.7276 38.2823 80.7549 42.1685 80.476C47.4615 80.0964 51.3853 85.1348 49.6334 90.0618C49.3623 90.8244 49.1405 91.643 49.1405 91.8811C49.1405 92.4494 50.3812 93.6727 50.9577 93.6727C51.7666 93.6727 68.3136 86.1635 69.0842 85.4467C69.8518 84.7331 71.7087 83.8319 72.019 84.023C72.1211 84.0858 72.2764 84.6134 72.3639 85.1954C72.4517 85.7777 72.9652 87.1298 73.5051 88.2002L74.4866 90.1464L73.8395 90.8672L73.1924 91.5882V95.7684V99.9485H72.3105C71.8252 99.9485 71.1947 100.111 70.9094 100.31C70.3968 100.668 70.3903 100.744 70.3912 106.412C70.3917 109.569 70.4606 113.642 70.5442 115.464L70.6964 118.776H72.0029L73.3092 118.776L73.2279 110.757L73.1467 102.738L81.2842 102.738C85.7597 102.737 94.0714 102.668 99.7547 102.583L110.088 102.43L110.088 105.547C110.089 107.262 110.158 110.94 110.242 113.721L110.396 118.776H111.745H113.094L112.97 109.885C112.827 99.6729 112.869 99.8879 110.966 99.7626L109.906 99.6926L109.819 95.5341C109.74 91.7623 109.687 91.3153 109.247 90.7282L108.761 90.0811L109.658 88.3322C110.758 86.184 114.624 72.1491 114.428 71.0099C114.363 70.6264 114.053 69.511 113.74 68.5312L113.172 66.7498L114.651 66.0253C117.101 64.8245 118.433 62.2947 117.873 59.9061C117.557 58.5578 98.6153 13.4814 98.365 13.4814C98.2546 13.4814 94.2531 15.112 89.473 17.1049C84.6928 19.0978 80.6504 20.7826 80.4897 20.8488C80.2691 20.9399 80.1979 20.4648 80.1979 18.9012C80.1979 15.4918 79.4831 13.4845 77.5349 11.4237C75.5542 9.32822 73.2401 8.34965 70.2576 8.3464C67.221 8.34338 65.0535 9.27964 62.9342 11.5104C60.0636 14.5316 59.381 18.8847 61.1833 22.6769C61.8677 24.1169 63.3136 25.8079 64.4679 26.5177C65.1523 26.9389 65.2375 27.0691 64.9379 27.236C64.3614 27.5572 46.1254 35.0984 45.9297 35.0966C45.8335 35.0956 45.3298 34.2703 44.8109 33.2622L43.8671 31.4296L44.519 30.7033L45.1708 29.9771V25.8272V21.6772L46.2213 21.5594C48.0486 21.3544 47.9729 21.6679 47.9729 14.3036C47.9729 10.6961 47.9038 6.00226 47.8195 3.87242L47.6661 0H46.3556H45.0451L45.135 9.41376L45.2247 18.8275H35.5451C30.2214 18.8275 21.9079 18.8968 17.0706 18.9814L8.27555 19.1355V15.8814C8.27555 14.0916 8.20619 9.78612 8.12119 6.31349L7.96708 0H6.61036H5.25364L5.38628 10.2854ZM98.3283 1.66124C98.2459 2.44688 98.1784 4.01584 98.1784 5.14781V7.20559H99.5676H100.957L101.027 3.84686C101.106 0.0880941 101.179 0.242666 99.3208 0.235693L98.4785 0.232438L98.3283 1.66124ZM88.0794 4.54766L86.9707 5.12201L88.4897 8.13953C89.3252 9.79914 90.1173 11.157 90.2499 11.157C90.4559 11.157 92.3065 10.3026 92.5351 10.1018C92.6397 10.0102 89.4536 3.95866 89.3049 3.96679C89.2407 3.97028 88.6891 4.23154 88.0794 4.54766ZM108.583 6.90947C107.741 8.53328 107.052 9.94232 107.052 10.0406C107.052 10.139 107.571 10.4813 108.206 10.8016L109.36 11.3837L110.891 8.43147C111.734 6.80766 112.423 5.39862 112.423 5.30029C112.423 5.20197 111.903 4.85959 111.269 4.53929L110.115 3.95726L108.583 6.90947ZM73.3293 11.7284C74.7201 12.3492 76.0117 13.5614 76.7519 14.9404C77.2262 15.8239 77.2808 16.2591 77.2969 19.2924C77.3165 22.9754 77.4534 23.4835 78.546 23.934C79.4268 24.2973 79.1253 24.4026 89.0714 20.2561C93.3739 18.4624 96.9588 17.0673 97.0377 17.1558C97.3618 17.5194 115.043 59.9124 115.159 60.6044C115.396 62.0174 114.378 63.4241 112.842 63.8078C112.286 63.9466 112.211 63.8708 111.877 62.8353C111.678 62.2177 110.761 59.359 109.84 56.4825C108.11 51.0818 107.732 50.3473 106.305 49.6049C105.518 49.1961 103.713 49.1979 102.556 49.6086C100.377 50.3829 99.074 52.1104 98.4778 55.0168C98.1063 56.8282 98.1072 56.8407 98.9754 62.2935C99.4537 65.2978 99.8999 67.9834 99.9669 68.2616C100.062 68.6567 99.892 68.8959 99.1919 69.3529C98.6987 69.6748 92.0954 72.5171 84.5179 75.6692C76.9403 78.821 70.6616 81.4481 70.5649 81.5069C70.4685 81.5657 70.2952 81.3674 70.1801 81.0662C70.0652 80.7649 68.6466 77.521 67.0281 73.8578C65.4096 70.1946 64.0854 67.1057 64.0854 66.9939C64.0854 66.8818 64.3948 66.8356 64.7731 66.8909C66.0397 67.0759 69.2895 66.4976 70.6238 65.8496C74.7135 63.8641 77.1108 58.5094 75.9103 54.0419C74.9741 50.5589 72.6498 48.1043 69.1828 46.9372C67.9837 46.5337 67.3303 46.4598 65.72 46.546C62.3896 46.7245 59.7451 48.1162 57.993 50.6123L57.1468 51.818L54.2792 45.3757C52.7021 41.8324 51.1214 38.3561 50.7667 37.6502L50.1217 36.3669L59.4623 32.5423C65.3653 30.1254 68.9229 28.5472 69.1295 28.2536C69.9389 27.1033 69.215 25.6377 67.5704 25.0975C66.1877 24.6434 64.2666 22.8224 63.5966 21.3309C62.7796 19.5118 62.8109 16.8292 63.6683 15.1998C64.5529 13.5186 65.2744 12.7404 66.6284 12.0068C68.815 10.8223 71.0882 10.7277 73.3293 11.7284ZM42.3686 25.3098V29.0025L36.7059 29.1596C33.5913 29.2459 26.6297 29.2838 21.2356 29.2438L11.428 29.171L11.3638 25.5136L11.2993 21.8562L18.1357 21.7909C21.8955 21.7551 28.886 21.7012 33.6702 21.6712L42.3686 21.6168V25.3098ZM41.4011 32.8787C42.1603 33.9309 43.0547 35.7012 43.064 36.1702C43.0668 36.3125 38.0722 38.6554 31.9651 41.3771C22.8041 45.4594 20.8057 46.4317 20.5453 46.9326C19.8436 48.2837 17.7231 49.955 15.3347 51.0395C15.3001 51.0553 15.7541 53.9862 16.3437 57.5525C17.4951 64.5159 17.5376 65.6522 16.7166 67.4997C15.9572 69.2086 13.7748 70.1216 12.9099 69.0923C12.7219 68.8687 11.2276 64.5017 9.58953 59.388L6.61083 50.0905L8.62979 42.6525C10.3881 36.1744 10.7734 35.0122 11.616 33.6478L12.5834 32.0809L23.5646 32.0184C29.6042 31.9838 35.9203 31.9305 37.6002 31.8999L40.6548 31.8441L41.4011 32.8787ZM47.7842 38.0618C47.9771 38.2856 49.7355 42.1295 51.6921 46.6039C53.6485 51.0784 55.404 54.9794 55.5932 55.2727C56.077 56.0235 56.9034 56.2871 57.799 55.9765C58.3762 55.7762 58.6602 55.4391 59.1136 54.4166C59.9926 52.4332 61.077 51.2666 62.8475 50.3992C64.1615 49.7551 64.6528 49.6391 66.0523 49.6421C69.9482 49.6507 72.9288 52.4407 73.1527 56.2887C73.2856 58.5705 72.738 59.9961 71.1118 61.6029C69.4055 63.289 68.5401 63.5557 64.746 63.5652C61.9415 63.5722 61.7559 63.6019 61.1849 64.1358C60.7784 64.5161 60.5827 64.9431 60.5827 65.451C60.5827 65.9198 61.902 69.1316 64.0854 73.978C66.0119 78.2544 67.5881 82.0092 67.5881 82.3223C67.5881 82.6356 67.4569 83.0689 67.2962 83.2857C67.0398 83.6318 53.3076 89.9537 52.8123 89.9537C52.7065 89.9537 52.6892 89.3452 52.7737 88.6014C53.1836 84.996 51.1585 81.0141 47.9402 79.0969C41.7834 75.4293 34.0251 79.0732 32.7593 86.2272C32.1984 89.3963 33.1406 91.9287 35.9388 94.7735L37.8216 96.6881L35.2497 97.8401C33.8351 98.4737 30.3337 100.039 27.4685 101.318L22.2595 103.644L21.8362 102.668C21.6034 102.131 17.1841 92.2895 12.0157 80.7977C3.5163 61.8995 2.63035 59.8152 2.7429 58.9806C2.81856 58.4192 3.11395 57.8014 3.49715 57.4032C4.14515 56.7301 5.39001 56.0897 5.61512 56.3138C5.68471 56.3831 6.74206 59.5612 7.96474 63.3762C10.3165 70.715 10.6016 71.2963 12.1794 71.9683C13.7753 72.6479 16.6608 72.0187 17.9101 70.7187C18.779 69.8145 19.6528 67.7811 19.9356 66.006C20.1929 64.3889 20.1455 63.9501 18.8955 56.3847C18.3641 53.1684 18.3293 52.6587 18.6291 52.4918C19.5494 51.979 21.4161 50.3355 22.0928 49.4418C22.819 48.4829 23.3384 48.224 34.8859 43.0625C41.5058 40.1038 47.0372 37.6766 47.1778 37.669C47.3184 37.6613 47.5914 37.838 47.7842 38.0618ZM105.509 52.2587C105.575 52.3644 107.005 56.7064 108.686 61.9074L111.743 71.3637L109.725 78.8413C107.943 85.4462 107.59 86.5103 106.703 87.9619L105.699 89.605L91.856 89.665L78.0136 89.725L77.4578 89.2052C76.2779 88.1018 74.8235 84.7954 74.8291 83.2288C74.8312 82.6646 75.2562 82.4561 82.5935 79.4228C86.8628 77.6577 91.3257 75.8086 92.5113 75.3136L94.6666 74.4135L94.0875 75.5513C93.7688 76.1773 93.5082 76.7321 93.5082 76.7846C93.5082 76.8818 95.7151 77.8669 95.9332 77.8669C95.999 77.8669 96.5004 77.011 97.0471 75.9653C98.2272 73.7072 99.9104 71.9604 101.788 71.0455C102.997 70.4558 103.102 70.3452 102.983 69.775C102.21 66.0432 100.966 57.3063 101.055 56.2334C101.179 54.7353 101.866 53.2507 102.757 52.5532C103.388 52.059 105.261 51.8586 105.509 52.2587ZM106.935 96.1133V99.5999L91.7568 99.7751C83.4087 99.8716 76.4472 99.9011 76.2865 99.8407C76.0703 99.7591 75.9946 98.7947 75.9946 96.1189V92.5073L91.4649 92.567L106.935 92.6267V96.1133ZM29.7005 108.448C29.0903 108.764 28.5913 109.129 28.5913 109.26C28.5913 109.533 29.1477 110.66 30.6198 113.367L31.6599 115.281L32.8111 114.7C33.4442 114.381 33.9621 114.067 33.9621 114.004C33.9621 113.848 30.9381 107.849 30.8664 107.862C30.8351 107.868 30.3106 108.132 29.7005 108.448ZM10.0311 111.097L8.5142 114.111L9.52461 114.7C10.0804 115.024 10.6308 115.288 10.748 115.286C10.8652 115.285 11.6746 113.929 12.5465 112.273L14.1323 109.264L12.9631 108.674C12.32 108.349 11.7386 108.084 11.6708 108.084C11.6034 108.084 10.8655 109.44 10.0311 111.097ZM19.8695 114.163C19.7859 115.333 19.7177 116.842 19.7177 117.517V118.743L21.0128 118.904C21.725 118.992 22.3417 119.026 22.3831 118.979C22.4244 118.931 22.5138 117.35 22.5815 115.464L22.7048 112.035H21.3631H20.0211L19.8695 114.163Z" fill="#004D9C"/>
</svg>
