<svg width="118" height="119" viewBox="0 0 118 119" fill="none" xmlns="http://www.w3.org/2000/svg">
<path fill-rule="evenodd" clip-rule="evenodd" d="M25.9397 0.33209C22.8031 1.46853 20.9443 4.27961 20.9443 7.88691V9.56034H22.8473H24.7503L24.7508 8.0587C24.7513 5.47659 25.854 4.06433 28.0351 3.85266C28.6838 3.78971 29.6027 3.8678 30.0772 4.02589C31.7152 4.57177 32.7133 6.67647 32.151 8.39747C31.9852 8.9049 30.9065 10.1951 29.2697 11.8431L26.6533 14.4776V16.7908V19.1043L24.5305 19.2264C20.7602 19.4435 17.9143 21.2748 16.3082 24.5172C15.8491 25.4443 15.4733 26.3506 15.4733 26.5311C15.4733 26.7764 15.0637 26.8593 13.8519 26.8593C11.428 26.8593 9.62255 27.2687 7.49169 28.3016C3.87412 30.0547 0.961601 33.8735 0.265823 37.7754C-0.0886076 39.7621 -0.0886076 106.217 0.265823 108.204C1.091 112.832 4.74687 116.917 9.52645 118.552C10.7808 118.981 12.3788 119 48.2997 119H85.7647L87.2635 118.179C88.9284 117.267 89.6454 116.519 90.5947 114.701L91.2358 113.474L91.3119 106.687L91.3878 99.8991H100.886H110.385V88.3665V76.8339H111.725C112.462 76.8339 113.505 76.7025 114.044 76.5417C115.351 76.1518 117.321 74.1615 117.707 72.8417C118.094 71.519 118.099 62.9397 117.714 61.6406C117.558 61.1164 116.968 60.1676 116.402 59.5321C115.196 58.1765 113.835 57.6129 111.769 57.6129H110.385V48.0024V38.3919H104.975H99.5649L101.823 36.8628C105.526 34.3552 106.338 33.2243 106.526 30.314C106.678 27.9654 106.144 26.3977 104.692 24.9314C103.014 23.2356 100.886 22.6571 98.6098 23.2769C98.0613 23.4264 93.5733 26.274 88.015 29.9992C82.7111 33.5539 77.7336 36.7223 76.9539 37.0399C75.3658 37.6869 72.8684 38.3003 72.6638 38.0937C72.5903 38.0195 72.9181 37.4452 73.3925 36.8177C74.4136 35.4662 74.955 34.4191 75.5595 32.6256C76.1763 30.7952 76.1782 26.7771 75.563 24.9372C74.3073 21.1814 71.9262 18.3588 68.6828 16.7814C62.4439 13.7469 55.3838 15.7363 51.6428 21.5826C50.7408 22.9922 49.727 25.5549 49.727 26.4253C49.727 26.8266 49.4234 26.8593 45.6831 26.8593C42.424 26.8593 41.6393 26.7956 41.6393 26.5311C41.6393 26.3506 41.2634 25.4443 40.8044 24.5172C39.1982 21.2748 36.3523 19.4435 32.582 19.2264L30.4593 19.1043V17.6586V16.213L32.7331 13.8459C35.5488 10.9152 36.0436 9.93227 36.0386 7.27784C36.036 5.775 35.9182 5.11548 35.4991 4.2539C34.8012 2.81881 33.3154 1.32005 31.9253 0.648516C30.4536 -0.0624212 27.4647 -0.220274 25.9397 0.33209ZM66.718 20.0887C68.8643 21.1033 70.253 22.4829 71.3175 24.6584C72.1569 26.3739 72.2059 26.601 72.2059 28.7814C72.2059 30.9617 72.1569 31.1888 71.3175 32.9043C70.2475 35.0911 68.8703 36.4532 66.6587 37.5113C65.2218 38.1989 64.8535 38.2717 62.81 38.2717C60.7664 38.2717 60.3982 38.1989 58.9612 37.5113C56.7497 36.4532 55.3724 35.0911 54.3024 32.9043C53.4639 31.1907 53.414 30.9598 53.414 28.7939C53.414 26.7156 53.4851 26.3473 54.1669 24.8939C55.1226 22.856 56.4835 21.3642 58.2585 20.4087C60.1322 19.4001 61.1575 19.1718 63.3449 19.277C64.7727 19.3458 65.5331 19.5286 66.718 20.0887ZM34.0611 23.294C35.4672 23.7195 37.5954 25.7867 37.5954 26.7271C37.5954 26.7999 33.5278 26.8593 28.5563 26.8593C23.5847 26.8593 19.5176 26.778 19.5181 26.6791C19.5223 25.8216 21.5302 23.8392 22.9042 23.3358C23.9553 22.9507 32.8171 22.9175 34.0611 23.294ZM101.964 27.6761C102.665 28.3844 102.771 28.6478 102.764 29.6583C102.76 30.2991 102.608 31.0939 102.429 31.4242C102.232 31.7846 96.8358 35.581 88.9377 40.9146C76.8423 49.0828 75.7162 49.9002 75.0604 50.9864L74.3468 52.1683L74.2776 62.0597L74.2084 71.951L80.2496 77.1727C84.3063 80.6791 86.4778 82.7239 86.8603 83.3981L87.4298 84.4022V98.62C87.4298 112.605 87.4217 112.849 86.9393 113.502C86.0076 114.762 85.2471 115.156 83.7428 115.156C82.2385 115.156 81.4785 114.762 80.5462 113.502C80.0688 112.856 80.0541 112.527 79.9899 101.109L79.9237 89.3802L73.2105 83.5668C69.518 80.3694 66.1759 77.5763 65.7834 77.3601C65.3195 77.1044 64.487 76.9646 63.4047 76.9603C62.0114 76.955 61.5585 77.0614 60.6315 77.6119C60.0221 77.9737 59.303 78.5684 59.0337 78.9333C58.7645 79.2983 57.0749 83.3001 55.2794 87.8259L52.0146 96.0549H46.4448C42.0846 96.0549 40.9002 95.9896 40.9923 95.7546C41.057 95.5895 43.3846 89.724 46.1646 82.7203L51.2196 69.9864L52.3712 60.0155C53.0046 54.5315 53.5251 50.0175 53.5279 49.9845C53.5305 49.9516 52.3821 49.9269 50.9758 49.9298L48.4187 49.9353L41.4014 60.983L34.3842 72.0308L34.3199 66.8572L34.2559 61.6839L38.3638 55.2636C43.4053 47.3844 44.6032 46.0553 48.3333 44.2029C51.1425 42.8077 53.4806 42.2361 56.3774 42.2361C58.0392 42.2361 58.2909 42.2913 58.2942 42.6565C58.2961 42.8879 58.0137 46.5212 57.6664 50.7308L57.0351 58.3848L59.9227 61.3012L62.81 64.2177L65.6973 61.3012L68.5848 58.3848L67.9535 50.7308C67.6062 46.5212 67.3238 42.9028 67.3257 42.6902C67.3291 42.3603 67.8117 42.2827 70.6003 42.1635C74.387 42.0016 76.437 41.5227 79.3153 40.1278C80.3831 39.6102 85.3751 36.4131 90.4087 33.023C100.62 26.1454 100.502 26.2 101.964 27.6761ZM49.908 31.9521C50.3157 33.6858 51.3945 35.9138 52.4261 37.1533C52.904 37.7273 53.2951 38.241 53.2951 38.2946C53.2951 38.3481 42.2161 38.3919 28.6752 38.3919C8.02595 38.3919 4.05538 38.339 4.05538 38.0637C4.05538 37.2941 5.79708 34.2973 6.77188 33.3898C7.93223 32.3094 9.76551 31.2895 11.1311 30.9644C11.6223 30.8474 20.4819 30.7409 30.8192 30.7275L49.6144 30.7035L49.908 31.9521ZM95.1607 68.7851V96.0549H93.2577H91.3547V90.5793C91.3547 81.4767 91.5222 81.7848 82.2494 73.8306L78.0481 70.2267L78.041 61.7841C78.0345 54.0918 78.0709 53.2958 78.4501 52.83C78.8497 52.3394 94.6159 41.5638 94.9823 41.5311C95.0805 41.5225 95.1607 53.7867 95.1607 68.7851ZM11.4294 72.9897V103.743H7.62347H3.8175V72.9897V42.2361H7.62347H11.4294V72.9897ZM22.8473 72.9897V103.743H19.0414H15.2354V72.9897V42.2361H19.0414H22.8473V72.9897ZM30.4593 68.577C30.4593 88.5561 30.5292 95.1568 30.7485 95.9069C31.1346 97.2267 33.1051 99.217 34.4118 99.607C35.1339 99.8225 39.2363 99.8991 50.0519 99.8991H64.713V101.821V103.743H45.6831H26.6533V72.9897V42.2361H28.5563H30.4593V68.577ZM41.7687 44.1894C39.8143 46.0579 39.173 46.9217 35.7262 52.3271L34.2709 54.6096L34.2681 48.4228L34.2652 42.2361H39.0384H43.8118L41.7687 44.1894ZM63.5348 43.0169C63.541 43.4463 63.7981 46.717 64.1061 50.2849L64.6663 56.772L63.7382 57.7294L62.81 58.6871L61.8818 57.7294L60.9536 56.772L61.5138 50.2849C61.8218 46.717 62.079 43.4463 62.0852 43.0169C62.0952 42.312 62.1658 42.2361 62.81 42.2361C63.4541 42.2361 63.5248 42.312 63.5348 43.0169ZM106.579 69.1455V96.0549H102.773H98.9666V69.1455V42.2361H102.773H106.579V69.1455ZM48.2909 62.6233L47.613 68.7152L42.2011 82.3849C36.8205 95.9763 36.7852 96.0549 36.1111 96.0549C35.7082 96.0549 35.196 95.8154 34.8492 95.4651L34.2652 94.8755V86.8452C34.2652 80.1161 34.3211 78.768 34.6109 78.5251C34.8009 78.3658 38.0814 73.3229 41.9007 67.3188C45.7202 61.3144 48.873 56.431 48.907 56.4668C48.941 56.5024 48.6637 59.2731 48.2909 62.6233ZM113.607 62.0469C114.186 62.6317 114.191 62.6738 114.191 67.2234C114.191 71.773 114.186 71.8151 113.607 72.3999C113.127 72.8842 112.787 72.9897 111.704 72.9897H110.385V67.2234V61.4571H111.704C112.787 61.4571 113.127 61.5626 113.607 62.0469ZM70.0515 85.9038L76.1161 91.1295L76.1235 93.5922L76.1308 96.0549H66.1402C60.6453 96.0549 56.1495 96.0249 56.1495 95.9881C56.1495 95.9514 57.4331 92.6807 59.0021 88.7202C60.7557 84.2933 62.0488 81.3571 62.3587 81.0986C63.3821 80.2447 63.7515 80.4756 70.0515 85.9038ZM76.1308 101.821V103.743H72.3249H68.5189V101.821V99.8991H72.3249H76.1308V101.821ZM76.1308 109.952C76.1308 112.051 76.3575 113.389 76.9617 114.86C77.1283 115.264 75.6068 115.281 44.1046 115.22L11.0726 115.156L9.48363 114.395C7.33255 113.366 5.90507 111.978 4.89031 109.93C4.43121 109.002 4.05538 108.096 4.05538 107.916C4.05538 107.64 9.79382 107.588 40.0931 107.588H76.1308V109.952Z" fill="#004D9C"/>
</svg>
