<svg width="140" height="119" viewBox="0 0 140 119" fill="none" xmlns="http://www.w3.org/2000/svg">
<path fill-rule="evenodd" clip-rule="evenodd" d="M36.512 0.475459C34.7955 1.3302 34.6053 2.11538 34.605 8.35395L34.6044 13.8557H32.3982C28.9743 13.8557 27.9134 14.7824 27.6082 18.0392L27.4436 19.7981L21.009 19.8834C14.9887 19.9633 14.5025 20.0073 13.4531 20.567C11.6441 21.5318 10.701 22.4734 9.88943 24.1245C9.14302 25.6433 9.12776 25.7701 9.12612 30.488C9.12448 35.0823 9.15174 35.329 9.72238 35.899C10.5056 36.6815 11.8297 36.6823 12.6143 35.9007C13.1713 35.3456 13.2214 34.9851 13.3484 30.6253C13.4337 27.6918 13.6081 25.731 13.8158 25.3699C14.5453 24.1017 15.5978 23.9082 21.7694 23.9082H27.5191V25.9459V27.9836H23.0742C17.9654 27.9836 17.6124 28.1208 17.295 30.2316C17.198 30.8766 17.1841 37.3284 17.2639 44.569C17.344 51.8095 17.4157 66.3789 17.4228 76.9453L17.4361 96.1568L18.0327 96.7108C18.6284 97.2642 18.6799 97.2647 69.7586 97.2647C120.837 97.2647 120.889 97.2642 121.485 96.7108L122.081 96.1568V62.6242V29.0916L121.485 28.5376C120.935 28.0271 120.54 27.9836 116.443 27.9836H111.998V25.9459V23.9082H117.748C122.505 23.9082 123.66 23.9849 124.436 24.3525C126.289 25.2289 126.169 22.5688 126.169 62.6242C126.169 102.68 126.289 100.019 124.436 100.896C123.577 101.302 118.932 101.34 69.7586 101.34C20.5853 101.34 15.94 101.302 15.0808 100.896C13.2452 100.028 13.3484 101.794 13.3484 71.2365C13.3484 51.7237 13.2596 43.2969 13.0473 42.6897C12.5437 41.2494 10.843 40.8058 9.80222 41.8434C9.25829 42.3857 9.2542 42.6405 9.32533 71.3897C9.36484 87.3393 9.50219 100.603 9.63054 100.865C9.84392 101.299 9.65806 101.34 7.48205 101.34C6.17181 101.34 4.59532 101.49 3.97835 101.674C2.53049 102.105 0.762968 103.868 0.33049 105.311C-0.110163 106.782 -0.110163 113.558 0.33049 115.029C0.762968 116.472 2.53049 118.235 3.97835 118.666C4.8444 118.924 14.5077 119 46.3855 119H87.6709L88.389 118.437C89.382 117.658 89.382 116.267 88.389 115.488L87.6709 114.925H46.422C5.53631 114.925 5.16814 114.92 4.62802 114.381C4.13695 113.892 4.08299 113.476 4.08299 110.17C4.08299 106.864 4.13695 106.448 4.62802 105.959C5.16514 105.423 5.53631 105.415 30.4764 105.415H55.7798L56.0771 107.203C56.4336 109.349 57.3492 110.686 58.9628 111.416C59.9907 111.882 60.8919 111.924 69.7586 111.924C78.6254 111.924 79.5266 111.882 80.5545 111.416C82.168 110.686 83.0837 109.349 83.4401 107.203L83.7374 105.415H109.041C133.981 105.415 134.352 105.423 134.889 105.959C135.38 106.448 135.434 106.864 135.434 110.17C135.434 113.476 135.38 113.892 134.889 114.381C134.354 114.915 133.981 114.925 114.847 114.925H95.3501L94.6813 115.592C93.8286 116.441 93.8286 117.483 94.6813 118.333L95.3501 119H114.884C129.55 119 134.697 118.917 135.539 118.666C136.987 118.235 138.754 116.472 139.187 115.029C139.627 113.558 139.627 106.782 139.187 105.311C138.754 103.868 136.987 102.105 135.539 101.674C134.922 101.49 133.359 101.34 132.064 101.34C130.77 101.34 129.711 101.287 129.711 101.222C129.711 101.157 129.841 100.764 130 100.348C130.198 99.829 130.281 87.9781 130.265 62.5201C130.243 27.3229 130.217 25.3922 129.747 24.3386C129.023 22.7131 127.915 21.5323 126.338 20.7026C124.953 19.9739 124.897 19.9682 118.508 19.8834L112.074 19.7981L111.909 18.0392C111.604 14.7824 110.543 13.8557 107.119 13.8557H104.913V8.41318C104.913 2.51015 104.726 1.5106 103.465 0.687378C102.067 -0.226318 101.098 -0.140735 97.1143 1.24815C95.0451 1.96921 93.1329 2.77804 92.8647 3.04538C92.2159 3.69228 92.2448 5.02954 92.9222 5.70496C93.6924 6.47276 94.723 6.38772 97.8651 5.29743C99.3723 4.77442 100.655 4.34651 100.717 4.34651C100.778 4.34651 100.797 15.3679 100.758 28.8383L100.689 53.3304L91.2872 56.575C86.1162 58.3597 79.6476 60.593 76.9121 61.538L71.9387 63.2564V38.7534V14.2505L79.7192 11.5678C86.7675 9.13723 87.5374 8.81202 87.9004 8.11241C88.5909 6.78086 87.7099 5.16158 86.2953 5.16158C86.0146 5.16158 82.1817 6.39968 77.7779 7.91272L69.7709 10.6639L66.5629 9.56623C64.7983 8.96281 57.8239 6.56323 51.0642 4.23403C44.3046 1.9051 38.4796 -0.000271662 38.1199 2.90522e-08C37.7602 2.90522e-08 37.0366 0.214092 36.512 0.475459ZM53.476 9.38528L67.5785 14.2382V38.764V63.2898L66.8291 63.0007C66.4171 62.8415 60.9292 60.9402 54.6342 58.7759C48.3391 56.6114 42.2076 54.4976 41.0085 54.0787L38.8284 53.3169L38.7589 28.8019C38.7033 9.22716 38.7581 4.312 39.0314 4.40981C39.2195 4.47692 45.7194 6.71592 53.476 9.38528ZM34.6671 36.5367L34.7407 55.1424L35.5713 55.9705C36.2586 56.6554 38.1433 57.4006 46.4718 60.2803C52.0104 62.1952 56.7257 63.8324 56.9505 63.9188C57.1753 64.0049 51.6264 64.0853 44.6193 64.097L31.8793 64.1185V41.0248V17.931H33.2364H34.5933L34.6671 36.5367ZM107.638 41.0248V64.1185L94.8979 64.097C87.8911 64.0853 82.3419 64.0049 82.5667 63.9185C82.7916 63.8321 87.3902 62.2452 92.786 60.392C98.1817 58.539 102.878 56.8399 103.223 56.6163C103.567 56.3927 104.088 55.8191 104.38 55.3418C104.892 54.5039 104.911 53.8333 104.912 36.2022L104.913 17.931H106.275H107.638V41.0248ZM27.5755 48.8481C27.6644 67.5132 27.5575 66.4757 29.5095 67.6624C30.3622 68.1808 31.207 68.1919 69.7586 68.1919C108.31 68.1919 109.155 68.1808 110.008 67.6624C111.96 66.4757 111.853 67.5132 111.942 48.8481L112.022 32.059H115.008H117.993V62.6242V93.1894H69.7611H21.5285L21.4582 62.6242L21.3876 32.059H24.4416H27.4957L27.5755 48.8481ZM42.0986 74.2131C40.7395 74.954 40.4657 76.4125 41.5028 77.384L42.1337 77.9747H69.7968H97.4598L98.0526 77.346C99.0312 76.3073 98.8006 74.9492 97.5353 74.2968C96.8737 73.9556 92.932 73.9004 69.7041 73.9075C50.6435 73.9135 42.4825 74.0037 42.0986 74.2131ZM41.5413 83.2604C40.7237 84.0752 40.6878 85.0033 41.4372 85.9529L42.0018 86.6688H60.2528H78.5038L79.1726 86.0018C79.5405 85.635 79.8416 85.152 79.8416 84.9281C80.5068 85.2305 79.8416 84.1646 79.8416 84.9281C79.3764 84.717 60.0591 82.5934 60.0591 82.5934H42.21L41.5413 83.2604ZM79.244 106.57L79.1603 107.725H69.7586H60.3569L60.2733 106.57L60.1893 105.415H69.7586H79.3279L79.244 106.57Z" fill="#004D9C"/>
</svg>
