<svg width="116" height="116" viewBox="0 0 116 116" fill="none" xmlns="http://www.w3.org/2000/svg">
<path fill-rule="evenodd" clip-rule="evenodd" d="M57.0105 0.252089C56.2814 0.60642 56.0431 1.27055 55.6995 3.90721L55.3976 6.22367L54.4917 6.63367C52.6526 7.46601 50.4216 10.4001 50.4146 11.9956C50.4132 12.2872 50.2839 12.6055 50.1272 12.7028C49.9705 12.7999 44.572 13.7167 38.1309 14.74L26.4196 16.6004L25.6101 15.6582C24.3997 14.2496 23.111 13.6615 21.2353 13.6615C18.8929 13.6615 17.1544 14.746 16.0264 16.911C15.3235 18.2598 15.4108 20.621 16.2164 22.0558L16.8628 23.2071L14.4484 27.4417C12.2797 31.2454 11.8881 31.7887 10.5982 32.7849C4.79469 37.2673 2.48079 45.3063 4.98712 52.2802C8.68897 62.5804 20.6291 66.9212 30.0366 61.3868C32.1286 60.156 34.8563 57.4526 36.0065 55.4703C37.7993 52.3804 38.8022 48.1795 38.4776 45.1195C37.9474 40.1223 35.5216 35.6034 31.8448 32.7639C30.5883 31.7933 30.1762 31.2195 28.0207 27.439L25.6046 23.2018L26.1901 22.1741C26.512 21.609 26.7767 20.9558 26.7784 20.7229C26.7801 20.4901 26.8626 20.3006 26.9622 20.302C27.0617 20.3035 32.4522 19.4658 38.9411 18.4406C50.3293 16.6409 50.7481 16.592 50.9977 17.0354C51.1399 17.2878 51.7599 18.0439 52.3757 18.7153L53.4951 19.9363L51.4896 34.4581C50.3866 42.4451 48.7694 54.1179 47.8958 60.3981C46.1902 72.6564 46.1885 72.7067 47.4359 73.2772C47.836 73.4601 51.172 73.5458 57.8873 73.5458C64.6026 73.5458 67.9386 73.4601 68.3387 73.2772C69.586 72.7067 69.5841 72.6564 67.8798 60.3981C67.0066 54.1179 65.3862 42.4451 64.2787 34.4581L62.265 19.9363L63.3188 18.8472C64.4191 17.7101 65.3479 15.9707 65.3571 15.0302C65.3604 14.6899 65.5693 14.396 65.9049 14.2595C66.2032 14.138 71.4389 13.2624 77.5395 12.3136C83.6401 11.3649 88.8071 10.5381 89.0217 10.4761C89.2544 10.4091 89.5686 10.6037 89.8001 10.9583C90.1782 11.5377 90.1278 11.658 87.796 15.7444C85.5923 19.6064 85.2714 20.045 83.7156 21.3181C81.5659 23.0774 80.239 24.7588 79.076 27.1972C77.7614 29.9534 77.3358 31.818 77.3358 34.8211C77.3358 37.9472 77.7691 39.745 79.2537 42.7791C81.0465 46.4431 84.2046 49.3378 88.1081 50.8948C89.9966 51.6485 92.8449 52.2472 94.5393 52.2472C96.2337 52.2472 99.082 51.6485 100.971 50.8948C104.854 49.3456 108.049 46.4095 109.845 42.7391C111.31 39.745 111.743 37.9373 111.743 34.8211C111.743 31.818 111.317 29.9534 110.003 27.1972C108.84 24.7588 107.513 23.0774 105.363 21.3181C103.808 20.0457 103.486 19.6055 101.293 15.763L98.9117 11.5897L99.5582 10.4384C100.364 9.00362 100.451 6.64239 99.7482 5.29356C98.6202 3.1286 96.8816 2.04407 94.5393 2.04407C92.0653 2.04407 90.2761 3.23509 89.2496 5.56535C88.8722 6.42165 88.6004 6.71427 88.0912 6.81181C87.7254 6.88176 82.3879 7.73321 76.2304 8.70375C65.4231 10.4072 65.0262 10.4524 64.7767 10.0095C64.2165 9.01451 62.1773 7.03834 61.3017 6.64214L60.377 6.22367L60.0751 3.90721C59.7235 1.2098 59.4956 0.604477 58.6934 0.237561C57.9927 -0.0828862 57.6941 -0.0802171 57.0105 0.252089ZM95.8764 6.37179C97.0726 7.57226 96.225 9.65008 94.5393 9.65008C93.548 9.65008 92.6102 8.70883 92.6102 7.71385C92.6102 6.71887 93.548 5.77762 94.5393 5.77762C95.009 5.77762 95.5033 5.99713 95.8764 6.37179ZM59.8188 10.1947C61.055 11.0393 61.572 11.9075 61.6858 13.3311C61.7702 14.3847 61.6873 14.7608 61.2185 15.453C59.4575 18.0533 56.3146 18.065 54.5775 15.4777C52.4382 12.2916 56.6597 8.03647 59.8188 10.1947ZM96.7529 15.393C97.3258 16.4218 97.8233 17.3246 97.858 17.3996C97.8929 17.4744 96.3996 17.5356 94.5393 17.5356C92.679 17.5356 91.1856 17.4744 91.2206 17.3996C91.2553 17.3246 91.7528 16.4218 92.3257 15.393L93.3674 13.5226H94.5393H95.7112L96.7529 15.393ZM22.5724 17.9892C22.9456 18.3636 23.1643 18.8598 23.1643 19.3313C23.1643 19.8027 22.9456 20.2989 22.5724 20.6733C22.1993 21.048 21.705 21.2675 21.2353 21.2675C20.7656 21.2675 20.2712 21.048 19.8982 20.6733C19.5249 20.2989 19.3062 19.8027 19.3062 19.3313C19.3062 18.8598 19.5249 18.3636 19.8982 17.9892C20.2712 17.6145 20.7656 17.395 21.2353 17.395C21.705 17.395 22.1993 17.6145 22.5724 17.9892ZM58.7243 21.8121C58.8395 22.3227 60.6941 35.6755 63.7919 58.298C64.53 63.6892 65.1974 68.454 65.2751 68.8868L65.4161 69.6734H57.8873H50.3584L50.5005 68.8868C50.5786 68.454 51.2981 63.308 52.0994 57.4509C54.9978 36.2682 56.9322 22.3457 57.0515 21.8121C57.1441 21.3975 57.3435 21.2675 57.8873 21.2675C58.4308 21.2675 58.6309 21.3977 58.7243 21.8121ZM97.5891 21.6255C101.983 22.6655 105.476 25.7458 107.202 30.1016C108.08 32.3171 108.293 35.6443 107.704 37.9501C106.431 42.9402 102.666 46.7646 97.8042 48.0074C90.6988 49.8238 83.2326 45.3131 81.402 38.0982C79.6026 31.0072 84.0153 23.5859 91.1808 21.6526C92.8781 21.1946 95.7177 21.1825 97.5891 21.6255ZM23.4658 27.0629C24.0958 28.1576 24.6111 29.1322 24.6111 29.2283C24.6111 29.3244 23.8516 29.2997 22.9232 29.1736C21.8603 29.0291 20.6103 29.0291 19.5474 29.1736C18.619 29.2997 17.8594 29.321 17.8594 29.2206C17.8594 29.0603 19.0673 26.8651 19.9047 25.503C20.1343 25.1296 20.4444 25.025 21.2613 25.0456L22.3204 25.0722L23.4658 27.0629ZM87.865 27.364C87.1971 27.688 86.7273 28.8094 86.9538 29.5391C87.0497 29.8484 88.1642 31.1626 89.4304 32.4597L91.7328 34.818L91.2201 35.364C90.9382 35.6644 89.8917 36.7474 88.8944 37.7705C87.8971 38.7936 87.0112 39.9108 86.9256 40.253C86.628 41.4426 88.177 42.9088 89.2175 42.4225C89.476 42.3018 90.7405 41.2228 92.0277 40.0248C93.3148 38.8267 94.4334 37.8204 94.514 37.7887C94.5943 37.7567 95.7449 38.7652 97.0712 40.0294C98.3974 41.2937 99.7275 42.3937 100.027 42.4739C101.112 42.7643 102.43 41.3617 102.145 40.2201C102.061 39.8866 100.949 38.5331 99.6723 37.2129L97.3514 34.8122L99.6508 32.4567C100.916 31.1614 102.029 29.8484 102.125 29.5391C102.528 28.2399 101.096 26.8027 99.8017 27.2074C99.4936 27.3037 98.1811 28.4255 96.885 29.7L94.5287 32.0177L92.3035 29.8157C89.4905 27.0319 89.0504 26.7887 87.865 27.364ZM24.4918 33.2583C26.9723 33.907 28.9324 35.0378 30.7605 36.8755C36.7721 42.9177 35.8751 52.7908 28.8801 57.5731C26.6494 59.0981 24.7368 59.7567 22.0792 59.9147C16.0666 60.2722 10.5826 56.6991 8.5074 51.0724C7.70949 48.9087 7.5161 45.4915 8.06733 43.2919C9.29252 38.4032 13.039 34.5752 17.8768 33.27C19.6142 32.8012 22.7219 32.7956 24.4918 33.2583ZM24.4045 44.5364C22.1972 46.6852 20.1936 48.6674 19.952 48.9414C19.4543 49.5058 19.5541 49.5539 17.3936 47.7092C16.5749 47.0105 15.6856 46.4385 15.417 46.4385C14.8332 46.4385 13.5191 47.6908 13.5191 48.2472C13.5191 48.4636 13.6717 48.9348 13.8586 49.2945C14.3698 50.2791 18.1609 53.8868 18.8727 54.0659C20.046 54.3616 20.5924 53.8797 28.6563 45.4426C30.0918 43.9406 30.8805 42.9255 30.8805 42.5801C30.8805 41.8915 29.6279 40.6298 28.9443 40.6298C28.5903 40.6298 27.1015 41.9109 24.4045 44.5364ZM1.06801 75.7652C0.784676 75.9027 0.432142 76.2817 0.284328 76.6072C-0.0942485 77.441 -0.0949788 112.246 0.283357 113.08C0.430688 113.404 0.815541 113.79 1.13866 113.938C1.53556 114.119 4.61698 114.207 10.6255 114.207C16.634 114.207 19.7154 114.119 20.1123 113.938C20.8849 113.585 21.2353 112.76 21.2353 111.296C21.2353 109.875 20.5497 110.111 27.5534 109.119L32.7864 108.378L49.2364 112.263C58.8656 114.538 65.8943 116.086 66.1875 115.996C66.9357 115.768 109.09 99.5141 111.111 98.6745C114.184 97.3978 116 94.8064 116 91.698C116 89.8538 115.436 88.3169 114.27 86.9881C112.717 85.2165 111.454 84.6039 109.15 84.5032C107.262 84.4207 106.557 84.5865 87.4722 89.6047L67.7457 94.7916L63.5245 93.0909C61.2028 92.1555 59.3917 91.3098 59.4995 91.212C59.6075 91.114 60.5096 90.8412 61.5043 90.606C64.6532 89.8613 65.732 89.3535 66.874 88.0787C69.9316 84.6651 68.5504 79.3475 64.2517 77.9844C63.0909 77.6163 62.062 77.6446 46.2874 78.4801C37.0841 78.9675 27.6827 79.3635 25.3948 79.3603L21.2353 79.3545V78.2768C21.2353 76.9236 20.8673 76.0961 20.1123 75.7507C19.332 75.394 1.80466 75.4073 1.06801 75.7652ZM17.3772 94.8444V110.334H10.6255H3.87381V94.8444V79.3545H10.6255H17.3772V94.8444ZM63.8849 82.0401C64.5968 82.7059 64.9344 83.6382 64.7569 84.4488C64.4429 85.8837 64.032 86.0399 53.8671 88.5824C48.5852 89.9039 43.9742 91.1002 43.621 91.2413C42.1983 91.8089 42.2116 94 43.6415 94.5944C44.1987 94.8262 44.9224 94.7139 48.1914 93.8891C50.3293 93.3496 52.2733 92.9079 52.5113 92.9077C52.7492 92.9074 56.2225 94.2243 60.2296 95.8338L67.5154 98.7602L88.0401 93.3908C104.416 89.1066 108.74 88.0543 109.432 88.1845C110.539 88.3931 111.773 89.6221 112.112 90.8546C112.454 92.0979 112.121 93.3322 111.205 94.2129C110.672 94.7253 105.047 96.9953 88.0439 103.561L65.5869 112.232L49.3165 108.383L33.0464 104.535L28.0451 105.248C25.2943 105.64 22.637 106.021 22.1395 106.093L21.2353 106.226V94.7263V83.227L25.2742 83.212C27.4955 83.2038 35.7695 82.8361 43.6605 82.3951C51.5516 81.9539 59.2082 81.5795 60.675 81.5628C63.0733 81.5359 63.3971 81.5839 63.8849 82.0401Z" fill="#004D9C"/>
</svg>
