<svg id="Capa_1" data-name="Capa 1" xmlns="http://www.w3.org/2000/svg" viewBox="0 0 279.15 124.76"><defs><style>.cls-1{fill:#00006f;}.cls-2{fill:#88006f;}</style></defs><path class="cls-1" d="M79.7,0,75.8,71a19.32,19.32,0,0,0-28.46,0L43.44,0ZM16.09,112.55a16.85,16.85,0,0,1-8.35-2,14.73,14.73,0,0,1-5.7-5.7,16.85,16.85,0,0,1-2-8.35A3.32,3.32,0,0,1,1,94a3.41,3.41,0,0,1,2.48-1A3.4,3.4,0,0,1,6,94a3.4,3.4,0,0,1,1,2.51,10.78,10.78,0,0,0,1.17,5.1,8.64,8.64,0,0,0,8,4.69A9.08,9.08,0,0,0,20.85,105a8.72,8.72,0,0,0,3.25-3.45,10.78,10.78,0,0,0,1.17-5.1V63a3.44,3.44,0,0,1,1-2.51,3.32,3.32,0,0,1,2.45-1,3.51,3.51,0,0,1,2.55,1,3.34,3.34,0,0,1,1,2.51V96.46a16.65,16.65,0,0,1-2.07,8.35,15,15,0,0,1-5.7,5.7A16.8,16.8,0,0,1,16.09,112.55Zm45.51-.4A18.89,18.89,0,0,1,52,109.77a17.34,17.34,0,0,1-6.54-6.57,20.77,20.77,0,0,1,0-19.31A17.34,17.34,0,0,1,52,77.32a19,19,0,0,1,9.58-2.38,18.87,18.87,0,0,1,9.52,2.38,17.34,17.34,0,0,1,6.54,6.57,20.89,20.89,0,0,1,0,19.31,17,17,0,0,1-6.5,6.57A18.93,18.93,0,0,1,61.6,112.15Zm32-13.61a15.06,15.06,0,0,1-3.41-1V63a3.27,3.27,0,0,1,1-2.48A3.4,3.4,0,0,1,97.06,63V95.12a3.4,3.4,0,0,1-.93,2.45A3.31,3.31,0,0,1,93.64,98.54Zm0,13.41a3.32,3.32,0,0,1-3.41-3.42V78.63a3.28,3.28,0,0,1,1-2.48,3.4,3.4,0,0,1,5.86,2.48v29.9a3.41,3.41,0,0,1-.93,2.45A3.34,3.34,0,0,1,93.64,112Zm27.56,0a3.32,3.32,0,0,1-3.42-3.42V92a12.27,12.27,0,0,0-1.41-6.24,8.83,8.83,0,0,0-3.79-3.58A12.24,12.24,0,0,0,107.12,81a11.25,11.25,0,0,0-5.1,1.15,9.49,9.49,0,0,0-3.62,3,7.5,7.5,0,0,0-1.34,4.39H92.84a14.13,14.13,0,0,1,2-7.54,14.85,14.85,0,0,1,5.6-5.26,16.42,16.42,0,0,1,8-1.94,17.12,17.12,0,0,1,8.28,2,14.27,14.27,0,0,1,5.76,5.79A19.17,19.17,0,0,1,124.61,92v16.49A3.32,3.32,0,0,1,121.2,112Zm30.09.2a16.15,16.15,0,0,1-8.78-2.45,17.41,17.41,0,0,1-6.13-6.63,19.77,19.77,0,0,1-2.25-9.49,18.67,18.67,0,0,1,2.45-9.52,18.08,18.08,0,0,1,6.64-6.67,18.47,18.47,0,0,1,25.4,6.67,18.67,18.67,0,0,1,2.45,9.52h-2.62a19.76,19.76,0,0,1-2.24,9.49,17.36,17.36,0,0,1-6.14,6.63A16.15,16.15,0,0,1,151.29,112.15Zm1.34-6a11.37,11.37,0,0,0,6.1-1.64A11.65,11.65,0,0,0,163,100a13.31,13.31,0,0,0,1.54-6.4A13.48,13.48,0,0,0,163,87.11a11.72,11.72,0,0,0-4.23-4.49,12.09,12.09,0,0,0-12.16,0,11.87,11.87,0,0,0-4.29,4.49,13.16,13.16,0,0,0-1.58,6.47,13,13,0,0,0,1.58,6.4,11.8,11.8,0,0,0,4.29,4.49A11.43,11.43,0,0,0,152.63,106.11Zm15,5.84a3.36,3.36,0,0,1-2.45-1,3.32,3.32,0,0,1-1-2.45V98.27l1.27-7.1,5.57,2.41v15a3.32,3.32,0,0,1-3.42,3.42Zm17,0a3.32,3.32,0,0,1-3.42-3.42V78.63a3.28,3.28,0,0,1,1-2.48,3.4,3.4,0,0,1,5.86,2.48v29.9a3.41,3.41,0,0,1-.93,2.45A3.34,3.34,0,0,1,184.68,112Zm27.55,0a3.32,3.32,0,0,1-3.42-3.42V92a12.27,12.27,0,0,0-1.41-6.24,8.83,8.83,0,0,0-3.79-3.58A12.21,12.21,0,0,0,198.15,81a11.25,11.25,0,0,0-5.1,1.15,9.57,9.57,0,0,0-3.62,3,7.5,7.5,0,0,0-1.34,4.39h-4.22a14.05,14.05,0,0,1,2-7.54,14.75,14.75,0,0,1,5.59-5.26,16.42,16.42,0,0,1,8-1.94,17.12,17.12,0,0,1,8.28,2,14.21,14.21,0,0,1,5.76,5.79A19.17,19.17,0,0,1,215.64,92v16.49a3.32,3.32,0,0,1-3.41,3.42Zm18.16,0a3.33,3.33,0,0,1-3.42-3.42V78.63a3.29,3.29,0,0,1,1-2.48,3.69,3.69,0,0,1,4.92,0,3.34,3.34,0,0,1,.94,2.48v29.9a3.38,3.38,0,0,1-.94,2.45A3.31,3.31,0,0,1,230.39,112Zm27.55,0a3.33,3.33,0,0,1-3.42-3.42V92a12.37,12.37,0,0,0-1.4-6.24,8.83,8.83,0,0,0-3.79-3.58A12.24,12.24,0,0,0,243.87,81a11.25,11.25,0,0,0-5.1,1.15,9.42,9.42,0,0,0-3.62,3,7.5,7.5,0,0,0-1.34,4.39h-4.22a14.13,14.13,0,0,1,2-7.54,14.85,14.85,0,0,1,5.6-5.26,16.42,16.42,0,0,1,8-1.94,17.12,17.12,0,0,1,8.28,2,14.27,14.27,0,0,1,5.76,5.79A19.17,19.17,0,0,1,261.36,92v16.49a3.32,3.32,0,0,1-3.42,3.42Zm16.58,1a4.7,4.7,0,0,1-4.62-4.62,4.52,4.52,0,0,1,1.38-3.32,4.58,4.58,0,0,1,6.53,0,4.6,4.6,0,0,1,1.34,3.32,4.52,4.52,0,0,1-1.34,3.25A4.45,4.45,0,0,1,274.52,112.91Z"/><path class="cls-1" d="M79.7,0,75.8,71a19.32,19.32,0,0,0-28.46,0L43.44,0Z"/><path class="cls-2" d="M61.6,112.15A18.89,18.89,0,0,1,52,109.77a17.34,17.34,0,0,1-6.54-6.57,20.77,20.77,0,0,1,0-19.31A17.34,17.34,0,0,1,52,77.32a19,19,0,0,1,9.58-2.38,18.87,18.87,0,0,1,9.52,2.38,17.34,17.34,0,0,1,6.54,6.57,20.89,20.89,0,0,1,0,19.31,17,17,0,0,1-6.5,6.57A18.93,18.93,0,0,1,61.6,112.15Z"/></svg>